<svg xmlns="http://www.w3.org/2000/svg" viewBox="0 0 512 512">
  <defs>
    <linearGradient id="bg" x1="0" y1="0" x2="1" y2="1"><stop offset="0" stop-color="#2dd4f5"/><stop offset=".55" stop-color="#1a8cff"/><stop offset="1" stop-color="#1d4ed8"/></linearGradient>
    <linearGradient id="pl" x1="0" y1="0" x2="1" y2="1"><stop offset="0" stop-color="#1fb6f5"/><stop offset="1" stop-color="#1d5ee8"/></linearGradient>
  </defs>
  <rect width="512" height="512" rx="112" fill="url(#bg)"/>
  <rect x="198" y="112" width="116" height="84" rx="26" fill="none" stroke="#fff" stroke-width="24"/>
  <rect x="104" y="170" width="304" height="220" rx="44" fill="#fff"/>
  <path d="M136 336 C 170 330, 205 305, 232 280" fill="none" stroke="url(#pl)" stroke-width="12" stroke-linecap="round" stroke-dasharray="3 22"/>
  <g transform="translate(276 244) rotate(48) scale(5.4) translate(-12 -12)" fill="url(#pl)">
    <path d="M21 16v-2l-8-5V3.5c0-.83-.67-1.5-1.5-1.5S10 2.67 10 3.5V9l-8 5v2l8-2.5V19l-2 1.5V22l3.5-1 3.5 1v-1.5L13 19v-5.5l8 2.5z"/>
  </g>
  <g transform="translate(300 250) scale(7.4)">
    <path d="M12 2C8.13 2 5 5.13 5 9c0 5.25 7 13 7 13s7-7.75 7-13c0-3.87-3.13-7-7-7z" fill="#fff" stroke="#1d6bf0" stroke-width="1.6"/>
    <circle cx="12" cy="9" r="3" fill="#1d6bf0"/>
  </g>
</svg>
